<?xml version="1.0" standalone="no"?>
<!DOCTYPE svg PUBLIC "-//W3C//DTD SVG 20010904//EN"
 "http://www.w3.org/TR/2001/REC-SVG-20010904/DTD/svg10.dtd">
<svg version="1.0" xmlns="http://www.w3.org/2000/svg"
 width="600.000000pt" height="600.000000pt" viewBox="0 0 600.000000 600.000000"
 preserveAspectRatio="xMidYMid meet">

<g transform="translate(0.000000,600.000000) scale(0.100000,-0.100000)"
fill="#000000" stroke="none">
<path d="M1984 5116 c-3 -7 -4 -66 -2 -130 l3 -116 -127 0 -128 0 0 -130 0
-130 -130 0 -130 0 0 -125 0 -125 -125 0 -125 0 0 -900 0 -900 -130 0 -130 0
2 -387 3 -388 128 -3 127 -3 0 -124 0 -125 125 0 125 0 0 -765 0 -765 130 0
130 0 0 1280 0 1280 130 0 130 0 0 255 0 255 130 0 130 0 0 260 0 260 255 0
255 0 0 -130 0 -130 255 0 255 0 0 130 0 130 130 0 130 0 0 -132 0 -133 125 3
125 3 0 130 0 129 130 0 130 0 0 -260 0 -260 -130 0 -130 0 0 -125 0 -124 128
-3 127 -3 3 -897 2 -898 -130 0 -130 0 0 -130 0 -130 -635 0 -635 0 0 -380 0
-380 125 0 125 0 0 255 0 255 515 0 515 0 0 125 0 125 125 0 125 0 0 130 0
130 130 0 130 0 0 1280 0 1280 125 0 125 0 0 515 0 515 -125 0 -125 0 0 260 0
260 -1155 0 c-975 0 -1156 -2 -1161 -14z m-254 -2301 l0 -255 -125 0 -125 0 0
255 0 255 125 0 125 0 0 -255z"/>
<path d="M2510 2946 l0 -125 125 -3 125 -3 0 128 0 127 -125 0 -125 0 0 -124z"/>
<path d="M3020 2175 l0 -125 255 0 255 0 0 125 0 125 -255 0 -255 0 0 -125z"/>
<path d="M2760 1405 l0 -125 385 0 385 0 0 125 0 125 -385 0 -385 0 0 -125z"/>
</g>
</svg>
